<mxfile host="app.diagrams.net" modified="2023-07-26T09:12:01.290Z" agent="Mozilla/5.0 (Macintosh; Intel Mac OS X 10_15_7) AppleWebKit/537.36 (KHTML, like Gecko) Chrome/114.0.0.0 Safari/537.36" etag="RpfRDpbAEQfIWMHto5HR" version="21.6.5" type="github">
  <diagram name="第 1 页" id="9iNaHV8LAg5F92YHDCXb">
    <mxGraphModel dx="908" dy="569" grid="1" gridSize="10" guides="1" tooltips="1" connect="1" arrows="1" fold="1" page="1" pageScale="1" pageWidth="827" pageHeight="1169" math="0" shadow="0">
      <root>
        <mxCell id="0" />
        <mxCell id="1" parent="0" />
        <mxCell id="nQQ71aM1SxQxeUYmIe1s-1" value="用户" style="shape=umlActor;verticalLabelPosition=bottom;verticalAlign=top;html=1;outlineConnect=0;" vertex="1" parent="1">
          <mxGeometry x="60" y="160" width="30" height="60" as="geometry" />
        </mxCell>
        <mxCell id="nQQ71aM1SxQxeUYmIe1s-7" value="" style="edgeStyle=orthogonalEdgeStyle;rounded=0;orthogonalLoop=1;jettySize=auto;html=1;entryX=0;entryY=0.5;entryDx=0;entryDy=0;" edge="1" parent="1" source="nQQ71aM1SxQxeUYmIe1s-4" target="nQQ71aM1SxQxeUYmIe1s-6">
          <mxGeometry relative="1" as="geometry" />
        </mxCell>
        <mxCell id="nQQ71aM1SxQxeUYmIe1s-4" value="chat_completion&lt;br&gt;(api-proxy)" style="rounded=1;whiteSpace=wrap;html=1;" vertex="1" parent="1">
          <mxGeometry x="160" y="150" width="120" height="60" as="geometry" />
        </mxCell>
        <mxCell id="nQQ71aM1SxQxeUYmIe1s-5" value="" style="endArrow=classic;html=1;rounded=0;exitX=1;exitY=0.3333333333333333;exitDx=0;exitDy=0;exitPerimeter=0;entryX=0;entryY=0.5;entryDx=0;entryDy=0;edgeStyle=orthogonalEdgeStyle;curved=1;" edge="1" parent="1" source="nQQ71aM1SxQxeUYmIe1s-1" target="nQQ71aM1SxQxeUYmIe1s-4">
          <mxGeometry width="50" height="50" relative="1" as="geometry">
            <mxPoint x="180" y="200" as="sourcePoint" />
            <mxPoint x="230" y="150" as="targetPoint" />
          </mxGeometry>
        </mxCell>
        <mxCell id="nQQ71aM1SxQxeUYmIe1s-6" value="valid key pool" style="rounded=1;whiteSpace=wrap;html=1;" vertex="1" parent="1">
          <mxGeometry x="380" y="40" width="120" height="105" as="geometry" />
        </mxCell>
        <mxCell id="nQQ71aM1SxQxeUYmIe1s-8" value="evict key pool" style="rounded=1;whiteSpace=wrap;html=1;" vertex="1" parent="1">
          <mxGeometry x="380" y="260" width="120" height="105" as="geometry" />
        </mxCell>
        <mxCell id="nQQ71aM1SxQxeUYmIe1s-10" value="" style="shape=flexArrow;endArrow=classic;html=1;rounded=0;fillColor=#f8cecc;strokeColor=#b85450;" edge="1" parent="1">
          <mxGeometry width="50" height="50" relative="1" as="geometry">
            <mxPoint x="470" y="151" as="sourcePoint" />
            <mxPoint x="470" y="241" as="targetPoint" />
          </mxGeometry>
        </mxCell>
        <mxCell id="nQQ71aM1SxQxeUYmIe1s-16" value="evict" style="edgeLabel;html=1;align=center;verticalAlign=middle;resizable=0;points=[];" vertex="1" connectable="0" parent="nQQ71aM1SxQxeUYmIe1s-10">
          <mxGeometry x="0.6667" y="1" relative="1" as="geometry">
            <mxPoint x="-2" y="21" as="offset" />
          </mxGeometry>
        </mxCell>
        <mxCell id="nQQ71aM1SxQxeUYmIe1s-11" value="" style="shape=flexArrow;endArrow=classic;html=1;rounded=0;fillColor=#d5e8d4;strokeColor=#82b366;" edge="1" parent="1">
          <mxGeometry width="50" height="50" relative="1" as="geometry">
            <mxPoint x="410" y="252" as="sourcePoint" />
            <mxPoint x="410" y="162" as="targetPoint" />
          </mxGeometry>
        </mxCell>
        <mxCell id="nQQ71aM1SxQxeUYmIe1s-15" value="rejoin" style="edgeLabel;html=1;align=center;verticalAlign=middle;resizable=0;points=[];" vertex="1" connectable="0" parent="nQQ71aM1SxQxeUYmIe1s-11">
          <mxGeometry x="0.7333" y="-1" relative="1" as="geometry">
            <mxPoint x="-2" y="-20" as="offset" />
          </mxGeometry>
        </mxCell>
        <mxCell id="nQQ71aM1SxQxeUYmIe1s-12" value="探活" style="text;html=1;align=center;verticalAlign=middle;resizable=0;points=[];autosize=1;strokeColor=none;fillColor=none;" vertex="1" parent="1">
          <mxGeometry x="414" y="188" width="50" height="30" as="geometry" />
        </mxCell>
      </root>
    </mxGraphModel>
  </diagram>
</mxfile>
